<?xml version="1.0" encoding="utf-8"?>
<svg xmlns="http://www.w3.org/2000/svg" xmlns:xlink="http://www.w3.org/1999/xlink" width="600" height="400" viewBox="0 0 2400 1600">
<defs>
  <clipPath id="clip230">
    <rect x="0" y="0" width="2400" height="1600"/>
  </clipPath>
</defs>
<path clip-path="url(#clip230)" d="M0 1600 L2400 1600 L2400 0 L0 0  Z" fill="#ffffff" fill-rule="evenodd" fill-opacity="1"/>
<defs>
  <clipPath id="clip231">
    <rect x="480" y="0" width="1681" height="1600"/>
  </clipPath>
</defs>
<path clip-path="url(#clip230)" d="M251.842 1423.18 L2352.76 1423.18 L2352.76 47.2441 L251.842 47.2441  Z" fill="#ffffff" fill-rule="evenodd" fill-opacity="1"/>
<defs>
  <clipPath id="clip232">
    <rect x="251" y="47" width="2102" height="1377"/>
  </clipPath>
</defs>
<polyline clip-path="url(#clip232)" style="stroke:#000000; stroke-linecap:round; stroke-linejoin:round; stroke-width:2; stroke-opacity:0.1; fill:none" points="519.933,1423.18 519.933,47.2441 "/>
<polyline clip-path="url(#clip232)" style="stroke:#000000; stroke-linecap:round; stroke-linejoin:round; stroke-width:2; stroke-opacity:0.1; fill:none" points="1041.51,1423.18 1041.51,47.2441 "/>
<polyline clip-path="url(#clip232)" style="stroke:#000000; stroke-linecap:round; stroke-linejoin:round; stroke-width:2; stroke-opacity:0.1; fill:none" points="1563.09,1423.18 1563.09,47.2441 "/>
<polyline clip-path="url(#clip232)" style="stroke:#000000; stroke-linecap:round; stroke-linejoin:round; stroke-width:2; stroke-opacity:0.1; fill:none" points="2084.67,1423.18 2084.67,47.2441 "/>
<polyline clip-path="url(#clip230)" style="stroke:#000000; stroke-linecap:round; stroke-linejoin:round; stroke-width:4; stroke-opacity:1; fill:none" points="251.842,1423.18 2352.76,1423.18 "/>
<polyline clip-path="url(#clip230)" style="stroke:#000000; stroke-linecap:round; stroke-linejoin:round; stroke-width:4; stroke-opacity:1; fill:none" points="519.933,1423.18 519.933,1404.28 "/>
<polyline clip-path="url(#clip230)" style="stroke:#000000; stroke-linecap:round; stroke-linejoin:round; stroke-width:4; stroke-opacity:1; fill:none" points="1041.51,1423.18 1041.51,1404.28 "/>
<polyline clip-path="url(#clip230)" style="stroke:#000000; stroke-linecap:round; stroke-linejoin:round; stroke-width:4; stroke-opacity:1; fill:none" points="1563.09,1423.18 1563.09,1404.28 "/>
<polyline clip-path="url(#clip230)" style="stroke:#000000; stroke-linecap:round; stroke-linejoin:round; stroke-width:4; stroke-opacity:1; fill:none" points="2084.67,1423.18 2084.67,1404.28 "/>
<path clip-path="url(#clip230)" d="M510.315 1481.64 L517.954 1481.64 L517.954 1455.28 L509.644 1456.95 L509.644 1452.69 L517.908 1451.02 L522.584 1451.02 L522.584 1481.64 L530.222 1481.64 L530.222 1485.58 L510.315 1485.58 L510.315 1481.64 Z" fill="#000000" fill-rule="nonzero" fill-opacity="1" /><path clip-path="url(#clip230)" d="M1036.16 1481.64 L1052.48 1481.64 L1052.48 1485.58 L1030.54 1485.58 L1030.54 1481.64 Q1033.2 1478.89 1037.78 1474.26 Q1042.39 1469.61 1043.57 1468.27 Q1045.82 1465.74 1046.7 1464.01 Q1047.6 1462.25 1047.6 1460.56 Q1047.6 1457.8 1045.65 1456.07 Q1043.73 1454.33 1040.63 1454.33 Q1038.43 1454.33 1035.98 1455.09 Q1033.55 1455.86 1030.77 1457.41 L1030.77 1452.69 Q1033.59 1451.55 1036.05 1450.97 Q1038.5 1450.39 1040.54 1450.39 Q1045.91 1450.39 1049.1 1453.08 Q1052.3 1455.77 1052.3 1460.26 Q1052.3 1462.39 1051.49 1464.31 Q1050.7 1466.2 1048.59 1468.8 Q1048.02 1469.47 1044.91 1472.69 Q1041.81 1475.88 1036.16 1481.64 Z" fill="#000000" fill-rule="nonzero" fill-opacity="1" /><path clip-path="url(#clip230)" d="M1563.49 1466.44 Q1560.34 1466.44 1558.49 1468.59 Q1556.66 1470.74 1556.66 1474.49 Q1556.66 1478.22 1558.49 1480.39 Q1560.34 1482.55 1563.49 1482.55 Q1566.64 1482.55 1568.47 1480.39 Q1570.32 1478.22 1570.32 1474.49 Q1570.32 1470.74 1568.47 1468.59 Q1566.64 1466.44 1563.49 1466.44 M1572.78 1451.78 L1572.78 1456.04 Q1571.02 1455.21 1569.21 1454.77 Q1567.43 1454.33 1565.67 1454.33 Q1561.04 1454.33 1558.59 1457.45 Q1556.15 1460.58 1555.81 1466.9 Q1557.17 1464.89 1559.23 1463.82 Q1561.29 1462.73 1563.77 1462.73 Q1568.98 1462.73 1571.99 1465.9 Q1575.02 1469.05 1575.02 1474.49 Q1575.02 1479.82 1571.87 1483.03 Q1568.72 1486.25 1563.49 1486.25 Q1557.5 1486.25 1554.33 1481.67 Q1551.16 1477.06 1551.16 1468.33 Q1551.16 1460.14 1555.04 1455.28 Q1558.93 1450.39 1565.48 1450.39 Q1567.24 1450.39 1569.03 1450.74 Q1570.83 1451.09 1572.78 1451.78 Z" fill="#000000" fill-rule="nonzero" fill-opacity="1" /><path clip-path="url(#clip230)" d="M2042.94 1451.02 L2065.16 1451.02 L2065.16 1453.01 L2052.62 1485.58 L2047.73 1485.58 L2059.54 1454.96 L2042.94 1454.96 L2042.94 1451.02 Z" fill="#000000" fill-rule="nonzero" fill-opacity="1" /><path clip-path="url(#clip230)" d="M2078.31 1481.64 L2094.63 1481.64 L2094.63 1485.58 L2072.69 1485.58 L2072.69 1481.64 Q2075.35 1478.89 2079.93 1474.26 Q2084.54 1469.61 2085.72 1468.27 Q2087.96 1465.74 2088.84 1464.01 Q2089.75 1462.25 2089.75 1460.56 Q2089.75 1457.8 2087.8 1456.07 Q2085.88 1454.33 2082.78 1454.33 Q2080.58 1454.33 2078.13 1455.09 Q2075.7 1455.86 2072.92 1457.41 L2072.92 1452.69 Q2075.74 1451.55 2078.2 1450.97 Q2080.65 1450.39 2082.69 1450.39 Q2088.06 1450.39 2091.25 1453.08 Q2094.45 1455.77 2094.45 1460.26 Q2094.45 1462.39 2093.64 1464.31 Q2092.85 1466.2 2090.74 1468.8 Q2090.16 1469.47 2087.06 1472.69 Q2083.96 1475.88 2078.31 1481.64 Z" fill="#000000" fill-rule="nonzero" fill-opacity="1" /><path clip-path="url(#clip230)" d="M2114.45 1454.1 Q2110.83 1454.1 2109.01 1457.66 Q2107.2 1461.2 2107.2 1468.33 Q2107.2 1475.44 2109.01 1479.01 Q2110.83 1482.55 2114.45 1482.55 Q2118.08 1482.55 2119.88 1479.01 Q2121.71 1475.44 2121.71 1468.33 Q2121.71 1461.2 2119.88 1457.66 Q2118.08 1454.1 2114.45 1454.1 M2114.45 1450.39 Q2120.26 1450.39 2123.31 1455 Q2126.39 1459.58 2126.39 1468.33 Q2126.39 1477.06 2123.31 1481.67 Q2120.26 1486.25 2114.45 1486.25 Q2108.63 1486.25 2105.56 1481.67 Q2102.5 1477.06 2102.5 1468.33 Q2102.5 1459.58 2105.56 1455 Q2108.63 1450.39 2114.45 1450.39 Z" fill="#000000" fill-rule="nonzero" fill-opacity="1" /><path clip-path="url(#clip230)" d="M1098.03 1549.09 L1098.03 1536.33 L1087.52 1536.33 L1087.52 1531.04 L1104.39 1531.04 L1104.39 1551.44 Q1100.67 1554.09 1096.18 1555.45 Q1091.69 1556.79 1086.6 1556.79 Q1075.46 1556.79 1069.16 1550.3 Q1062.89 1543.77 1062.89 1532.16 Q1062.89 1520.51 1069.16 1514.01 Q1075.46 1507.49 1086.6 1507.49 Q1091.25 1507.49 1095.42 1508.63 Q1099.62 1509.78 1103.15 1512.01 L1103.15 1518.85 Q1099.59 1515.83 1095.58 1514.3 Q1091.57 1512.77 1087.14 1512.77 Q1078.42 1512.77 1074.03 1517.64 Q1069.67 1522.51 1069.67 1532.16 Q1069.67 1541.77 1074.03 1546.64 Q1078.42 1551.51 1087.14 1551.51 Q1090.55 1551.51 1093.22 1550.93 Q1095.89 1550.33 1098.03 1549.09 Z" fill="#000000" fill-rule="nonzero" fill-opacity="1" /><path clip-path="url(#clip230)" d="M1136.54 1525.69 Q1135.55 1525.12 1134.37 1524.87 Q1133.23 1524.58 1131.83 1524.58 Q1126.86 1524.58 1124.19 1527.83 Q1121.55 1531.04 1121.55 1537.09 L1121.55 1555.87 L1115.66 1555.87 L1115.66 1520.22 L1121.55 1520.22 L1121.55 1525.76 Q1123.39 1522.51 1126.35 1520.95 Q1129.31 1519.36 1133.55 1519.36 Q1134.15 1519.36 1134.88 1519.46 Q1135.62 1519.52 1136.51 1519.68 L1136.54 1525.69 Z" fill="#000000" fill-rule="nonzero" fill-opacity="1" /><path clip-path="url(#clip230)" d="M1155.06 1524.33 Q1150.35 1524.33 1147.62 1528.02 Q1144.88 1531.68 1144.88 1538.08 Q1144.88 1544.47 1147.58 1548.17 Q1150.32 1551.83 1155.06 1551.83 Q1159.74 1551.83 1162.48 1548.13 Q1165.22 1544.44 1165.22 1538.08 Q1165.22 1531.74 1162.48 1528.05 Q1159.74 1524.33 1155.06 1524.33 M1155.06 1519.36 Q1162.7 1519.36 1167.06 1524.33 Q1171.42 1529.29 1171.42 1538.08 Q1171.42 1546.83 1167.06 1551.83 Q1162.7 1556.79 1155.06 1556.79 Q1147.39 1556.79 1143.03 1551.83 Q1138.7 1546.83 1138.7 1538.08 Q1138.7 1529.29 1143.03 1524.33 Q1147.39 1519.36 1155.06 1519.36 Z" fill="#000000" fill-rule="nonzero" fill-opacity="1" /><path clip-path="url(#clip230)" d="M1180.53 1541.8 L1180.53 1520.22 L1186.38 1520.22 L1186.38 1541.58 Q1186.38 1546.64 1188.36 1549.18 Q1190.33 1551.7 1194.28 1551.7 Q1199.02 1551.7 1201.76 1548.67 Q1204.52 1545.65 1204.52 1540.43 L1204.52 1520.22 L1210.38 1520.22 L1210.38 1555.87 L1204.52 1555.87 L1204.52 1550.39 Q1202.39 1553.64 1199.56 1555.23 Q1196.76 1556.79 1193.03 1556.79 Q1186.89 1556.79 1183.71 1552.97 Q1180.53 1549.15 1180.53 1541.8 M1195.26 1519.36 L1195.26 1519.36 Z" fill="#000000" fill-rule="nonzero" fill-opacity="1" /><path clip-path="url(#clip230)" d="M1228.11 1550.52 L1228.11 1569.43 L1222.22 1569.43 L1222.22 1520.22 L1228.11 1520.22 L1228.11 1525.63 Q1229.96 1522.45 1232.76 1520.92 Q1235.59 1519.36 1239.5 1519.36 Q1246 1519.36 1250.04 1524.52 Q1254.11 1529.67 1254.11 1538.08 Q1254.11 1546.48 1250.04 1551.63 Q1246 1556.79 1239.5 1556.79 Q1235.59 1556.79 1232.76 1555.26 Q1229.96 1553.7 1228.11 1550.52 M1248.03 1538.08 Q1248.03 1531.61 1245.36 1527.95 Q1242.72 1524.26 1238.07 1524.26 Q1233.43 1524.26 1230.75 1527.95 Q1228.11 1531.61 1228.11 1538.08 Q1228.11 1544.54 1230.75 1548.23 Q1233.43 1551.89 1238.07 1551.89 Q1242.72 1551.89 1245.36 1548.23 Q1248.03 1544.54 1248.03 1538.08 Z" fill="#000000" fill-rule="nonzero" fill-opacity="1" /><path clip-path="url(#clip230)" d="M1307.27 1521.27 L1307.27 1526.81 Q1304.78 1525.54 1302.11 1524.9 Q1299.44 1524.26 1296.57 1524.26 Q1292.21 1524.26 1290.02 1525.6 Q1287.85 1526.94 1287.85 1529.61 Q1287.85 1531.65 1289.41 1532.82 Q1290.97 1533.97 1295.68 1535.02 L1297.69 1535.47 Q1303.93 1536.8 1306.54 1539.25 Q1309.18 1541.67 1309.18 1546.03 Q1309.18 1551 1305.23 1553.89 Q1301.32 1556.79 1294.44 1556.79 Q1291.58 1556.79 1288.46 1556.22 Q1285.37 1555.68 1281.93 1554.56 L1281.93 1548.52 Q1285.18 1550.2 1288.33 1551.06 Q1291.48 1551.89 1294.57 1551.89 Q1298.71 1551.89 1300.93 1550.49 Q1303.16 1549.06 1303.16 1546.48 Q1303.16 1544.09 1301.54 1542.82 Q1299.95 1541.54 1294.5 1540.37 L1292.47 1539.89 Q1287.02 1538.74 1284.61 1536.39 Q1282.19 1534 1282.19 1529.86 Q1282.19 1524.83 1285.75 1522.1 Q1289.32 1519.36 1295.87 1519.36 Q1299.12 1519.36 1301.98 1519.84 Q1304.85 1520.32 1307.27 1521.27 Z" fill="#000000" fill-rule="nonzero" fill-opacity="1" /><path clip-path="url(#clip230)" d="M1318.5 1520.22 L1324.36 1520.22 L1324.36 1555.87 L1318.5 1555.87 L1318.5 1520.22 M1318.5 1506.34 L1324.36 1506.34 L1324.36 1513.76 L1318.5 1513.76 L1318.5 1506.34 Z" fill="#000000" fill-rule="nonzero" fill-opacity="1" /><path clip-path="url(#clip230)" d="M1334.07 1520.22 L1361.89 1520.22 L1361.89 1525.57 L1339.86 1551.19 L1361.89 1551.19 L1361.89 1555.87 L1333.27 1555.87 L1333.27 1550.52 L1355.3 1524.9 L1334.07 1524.9 L1334.07 1520.22 Z" fill="#000000" fill-rule="nonzero" fill-opacity="1" /><path clip-path="url(#clip230)" d="M1401.32 1536.58 L1401.32 1539.44 L1374.39 1539.44 Q1374.78 1545.49 1378.02 1548.67 Q1381.3 1551.83 1387.13 1551.83 Q1390.5 1551.83 1393.65 1551 Q1396.83 1550.17 1399.95 1548.52 L1399.95 1554.05 Q1396.8 1555.39 1393.49 1556.09 Q1390.18 1556.79 1386.78 1556.79 Q1378.25 1556.79 1373.25 1551.83 Q1368.28 1546.86 1368.28 1538.39 Q1368.28 1529.64 1372.99 1524.52 Q1377.74 1519.36 1385.76 1519.36 Q1392.95 1519.36 1397.12 1524.01 Q1401.32 1528.62 1401.32 1536.58 M1395.46 1534.86 Q1395.4 1530.05 1392.76 1527.19 Q1390.15 1524.33 1385.82 1524.33 Q1380.92 1524.33 1377.96 1527.09 Q1375.03 1529.86 1374.58 1534.89 L1395.46 1534.86 Z" fill="#000000" fill-rule="nonzero" fill-opacity="1" /><path clip-path="url(#clip230)" d="M1412.43 1547.78 L1419.14 1547.78 L1419.14 1553.26 L1413.92 1563.44 L1409.82 1563.44 L1412.43 1553.26 L1412.43 1547.78 Z" fill="#000000" fill-rule="nonzero" fill-opacity="1" /><path clip-path="url(#clip230)" d="M1446.23 1570.33 L1446.23 1508.91 Q1446.23 1506.46 1447.55 1506.46 Q1448.87 1506.46 1448.87 1508.43 L1448.87 1569.85 Q1448.87 1572.29 1447.55 1572.29 Q1446.23 1572.29 1446.23 1570.33 Z" fill="#000000" fill-rule="nonzero" fill-opacity="1" /><path clip-path="url(#clip230)" d="M1505.76 1510.04 L1501.61 1526.85 Q1501.32 1527.91 1501.13 1528.04 Q1500.96 1528.17 1500.45 1528.17 Q1499.45 1528.17 1499.45 1527.49 Q1499.45 1527.43 1499.55 1526.59 Q1499.64 1525.72 1499.64 1524.15 Q1499.64 1518.32 1496.81 1514.87 Q1494.01 1511.42 1489.02 1511.42 Q1484.35 1511.42 1479.87 1513.87 Q1475.39 1516.32 1472.53 1519.93 Q1470.11 1522.89 1468.44 1526.5 Q1466.79 1530.1 1466.12 1533.26 Q1465.44 1536.38 1465.18 1538.28 Q1464.96 1540.18 1464.96 1541.41 Q1464.96 1545.01 1466.12 1547.82 Q1467.28 1550.59 1469.21 1552.16 Q1471.17 1553.74 1473.43 1554.52 Q1475.72 1555.29 1478.2 1555.29 Q1479.13 1555.29 1480.26 1555.16 Q1481.38 1555.03 1483.12 1554.55 Q1484.89 1554.06 1486.34 1553.26 Q1487.82 1552.45 1489.11 1550.91 Q1490.43 1549.36 1490.95 1547.3 Q1492.33 1542.05 1492.33 1541.28 Q1492.33 1540.63 1491.95 1540.41 Q1491.56 1540.18 1490.27 1540.02 L1486.79 1539.89 Q1486.73 1539.89 1486.63 1539.89 Q1486.02 1539.89 1485.76 1539.89 Q1485.51 1539.86 1485.22 1539.8 Q1484.96 1539.73 1484.86 1539.6 Q1484.8 1539.44 1484.8 1539.19 Q1484.8 1538.57 1485.06 1538.28 Q1485.31 1537.96 1485.54 1537.93 Q1485.76 1537.86 1486.18 1537.86 L1495.43 1538.06 Q1496.17 1538.06 1498.87 1537.96 Q1501.58 1537.86 1502.35 1537.86 Q1503.22 1537.86 1503.22 1538.57 Q1503.22 1539.89 1502.16 1539.89 Q1501.09 1539.93 1500.55 1539.96 Q1500 1539.96 1499.45 1540.12 Q1498.94 1540.28 1498.74 1540.41 Q1498.55 1540.51 1498.29 1540.99 Q1498.03 1541.44 1497.94 1541.83 Q1497.84 1542.18 1497.62 1543.08 Q1497.49 1543.66 1497.16 1544.76 Q1496.87 1545.85 1496.75 1546.43 L1495.49 1551.52 Q1494.62 1555.29 1494.36 1555.55 Q1494.23 1555.8 1493.91 1555.8 Q1493.43 1555.8 1492.4 1554.39 Q1491.4 1552.97 1490.95 1551.71 Q1490.14 1552.58 1489.63 1553.1 Q1489.11 1553.58 1487.92 1554.35 Q1486.76 1555.13 1485.22 1555.74 Q1481.45 1557.32 1476.97 1557.32 Q1468.98 1557.32 1463.96 1552.26 Q1458.94 1547.17 1458.94 1539.25 Q1458.94 1533.65 1461.51 1528.14 Q1464.09 1522.63 1468.18 1518.54 Q1472.27 1514.45 1477.68 1511.91 Q1483.09 1509.36 1488.5 1509.36 Q1490.56 1509.36 1492.4 1509.91 Q1494.23 1510.46 1495.33 1511.13 Q1496.46 1511.81 1497.45 1512.81 Q1498.45 1513.77 1498.77 1514.23 Q1499.13 1514.68 1499.45 1515.22 L1504.06 1510.17 Q1504.86 1509.36 1505.06 1509.36 Q1505.44 1509.36 1505.6 1509.59 Q1505.76 1509.81 1505.76 1510.04 Z" fill="#000000" fill-rule="nonzero" fill-opacity="1" /><path clip-path="url(#clip230)" d="M1514.48 1570.33 L1514.48 1508.91 Q1514.48 1506.46 1515.81 1506.46 Q1517.13 1506.46 1517.13 1508.43 L1517.13 1569.85 Q1517.13 1572.29 1515.81 1572.29 Q1514.48 1572.29 1514.48 1570.33 Z" fill="#000000" fill-rule="nonzero" fill-opacity="1" /><polyline clip-path="url(#clip232)" style="stroke:#000000; stroke-linecap:round; stroke-linejoin:round; stroke-width:2; stroke-opacity:0.1; fill:none" points="251.842,1217.86 2352.76,1217.86 "/>
<polyline clip-path="url(#clip232)" style="stroke:#000000; stroke-linecap:round; stroke-linejoin:round; stroke-width:2; stroke-opacity:0.1; fill:none" points="251.842,986.719 2352.76,986.719 "/>
<polyline clip-path="url(#clip232)" style="stroke:#000000; stroke-linecap:round; stroke-linejoin:round; stroke-width:2; stroke-opacity:0.1; fill:none" points="251.842,755.582 2352.76,755.582 "/>
<polyline clip-path="url(#clip232)" style="stroke:#000000; stroke-linecap:round; stroke-linejoin:round; stroke-width:2; stroke-opacity:0.1; fill:none" points="251.842,524.445 2352.76,524.445 "/>
<polyline clip-path="url(#clip232)" style="stroke:#000000; stroke-linecap:round; stroke-linejoin:round; stroke-width:2; stroke-opacity:0.1; fill:none" points="251.842,293.309 2352.76,293.309 "/>
<polyline clip-path="url(#clip232)" style="stroke:#000000; stroke-linecap:round; stroke-linejoin:round; stroke-width:2; stroke-opacity:0.1; fill:none" points="251.842,62.1721 2352.76,62.1721 "/>
<polyline clip-path="url(#clip230)" style="stroke:#000000; stroke-linecap:round; stroke-linejoin:round; stroke-width:4; stroke-opacity:1; fill:none" points="251.842,1423.18 251.842,47.2441 "/>
<polyline clip-path="url(#clip230)" style="stroke:#000000; stroke-linecap:round; stroke-linejoin:round; stroke-width:4; stroke-opacity:1; fill:none" points="251.842,1217.86 270.74,1217.86 "/>
<polyline clip-path="url(#clip230)" style="stroke:#000000; stroke-linecap:round; stroke-linejoin:round; stroke-width:4; stroke-opacity:1; fill:none" points="251.842,986.719 270.74,986.719 "/>
<polyline clip-path="url(#clip230)" style="stroke:#000000; stroke-linecap:round; stroke-linejoin:round; stroke-width:4; stroke-opacity:1; fill:none" points="251.842,755.582 270.74,755.582 "/>
<polyline clip-path="url(#clip230)" style="stroke:#000000; stroke-linecap:round; stroke-linejoin:round; stroke-width:4; stroke-opacity:1; fill:none" points="251.842,524.445 270.74,524.445 "/>
<polyline clip-path="url(#clip230)" style="stroke:#000000; stroke-linecap:round; stroke-linejoin:round; stroke-width:4; stroke-opacity:1; fill:none" points="251.842,293.309 270.74,293.309 "/>
<polyline clip-path="url(#clip230)" style="stroke:#000000; stroke-linecap:round; stroke-linejoin:round; stroke-width:4; stroke-opacity:1; fill:none" points="251.842,62.1721 270.74,62.1721 "/>
<path clip-path="url(#clip230)" d="M114.931 1237.65 L122.57 1237.65 L122.57 1211.28 L114.26 1212.95 L114.26 1208.69 L122.524 1207.02 L127.2 1207.02 L127.2 1237.65 L134.839 1237.65 L134.839 1241.58 L114.931 1241.58 L114.931 1237.65 Z" fill="#000000" fill-rule="nonzero" fill-opacity="1" /><path clip-path="url(#clip230)" d="M154.283 1210.1 Q150.672 1210.1 148.843 1213.67 Q147.038 1217.21 147.038 1224.34 Q147.038 1231.44 148.843 1235.01 Q150.672 1238.55 154.283 1238.55 Q157.917 1238.55 159.723 1235.01 Q161.552 1231.44 161.552 1224.34 Q161.552 1217.21 159.723 1213.67 Q157.917 1210.1 154.283 1210.1 M154.283 1206.4 Q160.093 1206.4 163.149 1211 Q166.227 1215.59 166.227 1224.34 Q166.227 1233.06 163.149 1237.67 Q160.093 1242.25 154.283 1242.25 Q148.473 1242.25 145.394 1237.67 Q142.339 1233.06 142.339 1224.34 Q142.339 1215.59 145.394 1211 Q148.473 1206.4 154.283 1206.4 Z" fill="#000000" fill-rule="nonzero" fill-opacity="1" /><path clip-path="url(#clip230)" d="M166.227 1200.5 L190.339 1200.5 L190.339 1203.7 L166.227 1203.7 L166.227 1200.5 Z" fill="#000000" fill-rule="nonzero" fill-opacity="1" /><path clip-path="url(#clip230)" d="M210.05 1199.03 Q212.777 1199.62 214.3 1201.46 Q215.842 1203.3 215.842 1206.01 Q215.842 1210.17 212.984 1212.44 Q210.125 1214.72 204.859 1214.72 Q203.091 1214.72 201.21 1214.36 Q199.348 1214.02 197.354 1213.33 L197.354 1209.66 Q198.934 1210.58 200.815 1211.05 Q202.696 1211.52 204.746 1211.52 Q208.319 1211.52 210.181 1210.11 Q212.062 1208.7 212.062 1206.01 Q212.062 1203.53 210.313 1202.14 Q208.583 1200.72 205.479 1200.72 L202.207 1200.72 L202.207 1197.6 L205.63 1197.6 Q208.432 1197.6 209.918 1196.49 Q211.404 1195.36 211.404 1193.26 Q211.404 1191.1 209.861 1189.95 Q208.338 1188.78 205.479 1188.78 Q203.918 1188.78 202.132 1189.12 Q200.345 1189.46 198.201 1190.17 L198.201 1186.79 Q200.364 1186.19 202.244 1185.89 Q204.144 1185.58 205.818 1185.58 Q210.144 1185.58 212.664 1187.56 Q215.184 1189.52 215.184 1192.86 Q215.184 1195.2 213.849 1196.81 Q212.513 1198.41 210.05 1199.03 Z" fill="#000000" fill-rule="nonzero" fill-opacity="1" /><path clip-path="url(#clip230)" d="M115.703 1006.51 L123.341 1006.51 L123.341 980.145 L115.031 981.812 L115.031 977.553 L123.295 975.886 L127.971 975.886 L127.971 1006.51 L135.61 1006.51 L135.61 1010.45 L115.703 1010.45 L115.703 1006.51 Z" fill="#000000" fill-rule="nonzero" fill-opacity="1" /><path clip-path="url(#clip230)" d="M155.054 978.965 Q151.443 978.965 149.614 982.53 Q147.809 986.071 147.809 993.201 Q147.809 1000.31 149.614 1003.87 Q151.443 1007.41 155.054 1007.41 Q158.688 1007.41 160.494 1003.87 Q162.323 1000.31 162.323 993.201 Q162.323 986.071 160.494 982.53 Q158.688 978.965 155.054 978.965 M155.054 975.261 Q160.864 975.261 163.92 979.868 Q166.999 984.451 166.999 993.201 Q166.999 1001.93 163.92 1006.53 Q160.864 1011.12 155.054 1011.12 Q149.244 1011.12 146.165 1006.53 Q143.11 1001.93 143.11 993.201 Q143.11 984.451 146.165 979.868 Q149.244 975.261 155.054 975.261 Z" fill="#000000" fill-rule="nonzero" fill-opacity="1" /><path clip-path="url(#clip230)" d="M166.999 969.362 L191.11 969.362 L191.11 972.56 L166.999 972.56 L166.999 969.362 Z" fill="#000000" fill-rule="nonzero" fill-opacity="1" /><path clip-path="url(#clip230)" d="M202.583 979.838 L215.842 979.838 L215.842 983.036 L198.013 983.036 L198.013 979.838 Q200.175 977.6 203.899 973.839 Q207.642 970.058 208.601 968.968 Q210.426 966.917 211.14 965.507 Q211.874 964.078 211.874 962.705 Q211.874 960.466 210.294 959.056 Q208.733 957.645 206.213 957.645 Q204.426 957.645 202.432 958.266 Q200.458 958.887 198.201 960.147 L198.201 956.31 Q200.495 955.388 202.489 954.918 Q204.482 954.448 206.138 954.448 Q210.501 954.448 213.096 956.63 Q215.692 958.811 215.692 962.46 Q215.692 964.19 215.034 965.751 Q214.394 967.294 212.683 969.4 Q212.212 969.946 209.692 972.56 Q207.172 975.155 202.583 979.838 Z" fill="#000000" fill-rule="nonzero" fill-opacity="1" /><path clip-path="url(#clip230)" d="M115.402 775.374 L123.04 775.374 L123.04 749.009 L114.73 750.675 L114.73 746.416 L122.994 744.75 L127.67 744.75 L127.67 775.374 L135.309 775.374 L135.309 779.31 L115.402 779.31 L115.402 775.374 Z" fill="#000000" fill-rule="nonzero" fill-opacity="1" /><path clip-path="url(#clip230)" d="M154.753 747.828 Q151.142 747.828 149.313 751.393 Q147.508 754.935 147.508 762.064 Q147.508 769.171 149.313 772.735 Q151.142 776.277 154.753 776.277 Q158.388 776.277 160.193 772.735 Q162.022 769.171 162.022 762.064 Q162.022 754.935 160.193 751.393 Q158.388 747.828 154.753 747.828 M154.753 744.125 Q160.563 744.125 163.619 748.731 Q166.698 753.314 166.698 762.064 Q166.698 770.791 163.619 775.398 Q160.563 779.981 154.753 779.981 Q148.943 779.981 145.864 775.398 Q142.809 770.791 142.809 762.064 Q142.809 753.314 145.864 748.731 Q148.943 744.125 154.753 744.125 Z" fill="#000000" fill-rule="nonzero" fill-opacity="1" /><path clip-path="url(#clip230)" d="M166.698 738.226 L190.809 738.226 L190.809 741.423 L166.698 741.423 L166.698 738.226 Z" fill="#000000" fill-rule="nonzero" fill-opacity="1" /><path clip-path="url(#clip230)" d="M199.668 748.702 L205.874 748.702 L205.874 727.28 L199.122 728.634 L199.122 725.173 L205.837 723.819 L209.636 723.819 L209.636 748.702 L215.842 748.702 L215.842 751.899 L199.668 751.899 L199.668 748.702 Z" fill="#000000" fill-rule="nonzero" fill-opacity="1" /><path clip-path="url(#clip230)" d="M145.137 544.238 L152.776 544.238 L152.776 517.872 L144.465 519.539 L144.465 515.28 L152.729 513.613 L157.405 513.613 L157.405 544.238 L165.044 544.238 L165.044 548.173 L145.137 548.173 L145.137 544.238 Z" fill="#000000" fill-rule="nonzero" fill-opacity="1" /><path clip-path="url(#clip230)" d="M184.488 516.692 Q180.877 516.692 179.049 520.256 Q177.243 523.798 177.243 530.928 Q177.243 538.034 179.049 541.599 Q180.877 545.141 184.488 545.141 Q188.123 545.141 189.928 541.599 Q191.757 538.034 191.757 530.928 Q191.757 523.798 189.928 520.256 Q188.123 516.692 184.488 516.692 M184.488 512.988 Q190.299 512.988 193.354 517.594 Q196.433 522.178 196.433 530.928 Q196.433 539.654 193.354 544.261 Q190.299 548.844 184.488 548.844 Q178.678 548.844 175.6 544.261 Q172.544 539.654 172.544 530.928 Q172.544 522.178 175.6 517.594 Q178.678 512.988 184.488 512.988 Z" fill="#000000" fill-rule="nonzero" fill-opacity="1" /><path clip-path="url(#clip230)" d="M206.138 495.184 Q203.204 495.184 201.718 498.08 Q200.251 500.958 200.251 506.751 Q200.251 512.525 201.718 515.421 Q203.204 518.299 206.138 518.299 Q209.09 518.299 210.557 515.421 Q212.043 512.525 212.043 506.751 Q212.043 500.958 210.557 498.08 Q209.09 495.184 206.138 495.184 M206.138 492.175 Q210.858 492.175 213.341 495.917 Q215.842 499.641 215.842 506.751 Q215.842 513.841 213.341 517.584 Q210.858 521.308 206.138 521.308 Q201.417 521.308 198.915 517.584 Q196.433 513.841 196.433 506.751 Q196.433 499.641 198.915 495.917 Q201.417 492.175 206.138 492.175 Z" fill="#000000" fill-rule="nonzero" fill-opacity="1" /><path clip-path="url(#clip230)" d="M147.826 313.101 L155.465 313.101 L155.465 286.736 L147.155 288.402 L147.155 284.143 L155.419 282.476 L160.095 282.476 L160.095 313.101 L167.734 313.101 L167.734 317.036 L147.826 317.036 L147.826 313.101 Z" fill="#000000" fill-rule="nonzero" fill-opacity="1" /><path clip-path="url(#clip230)" d="M187.178 285.555 Q183.567 285.555 181.738 289.12 Q179.933 292.661 179.933 299.791 Q179.933 306.897 181.738 310.462 Q183.567 314.004 187.178 314.004 Q190.812 314.004 192.618 310.462 Q194.446 306.897 194.446 299.791 Q194.446 292.661 192.618 289.12 Q190.812 285.555 187.178 285.555 M187.178 281.851 Q192.988 281.851 196.044 286.458 Q199.122 291.041 199.122 299.791 Q199.122 308.518 196.044 313.124 Q192.988 317.708 187.178 317.708 Q181.368 317.708 178.289 313.124 Q175.233 308.518 175.233 299.791 Q175.233 291.041 178.289 286.458 Q181.368 281.851 187.178 281.851 Z" fill="#000000" fill-rule="nonzero" fill-opacity="1" /><path clip-path="url(#clip230)" d="M199.668 286.429 L205.874 286.429 L205.874 265.007 L199.122 266.361 L199.122 262.9 L205.837 261.546 L209.636 261.546 L209.636 286.429 L215.842 286.429 L215.842 289.626 L199.668 289.626 L199.668 286.429 Z" fill="#000000" fill-rule="nonzero" fill-opacity="1" /><path clip-path="url(#clip230)" d="M146.717 81.9645 L154.355 81.9645 L154.355 55.5989 L146.045 57.2656 L146.045 53.0063 L154.309 51.3397 L158.985 51.3397 L158.985 81.9645 L166.624 81.9645 L166.624 85.8997 L146.717 85.8997 L146.717 81.9645 Z" fill="#000000" fill-rule="nonzero" fill-opacity="1" /><path clip-path="url(#clip230)" d="M186.068 54.4184 Q182.457 54.4184 180.628 57.9831 Q178.823 61.5248 178.823 68.6544 Q178.823 75.7608 180.628 79.3256 Q182.457 82.8673 186.068 82.8673 Q189.702 82.8673 191.508 79.3256 Q193.337 75.7608 193.337 68.6544 Q193.337 61.5248 191.508 57.9831 Q189.702 54.4184 186.068 54.4184 M186.068 50.7147 Q191.878 50.7147 194.934 55.3211 Q198.013 59.9044 198.013 68.6544 Q198.013 77.3812 194.934 81.9876 Q191.878 86.571 186.068 86.571 Q180.258 86.571 177.179 81.9876 Q174.124 77.3812 174.124 68.6544 Q174.124 59.9044 177.179 55.3211 Q180.258 50.7147 186.068 50.7147 Z" fill="#000000" fill-rule="nonzero" fill-opacity="1" /><path clip-path="url(#clip230)" d="M202.583 55.2919 L215.842 55.2919 L215.842 58.4893 L198.013 58.4893 L198.013 55.2919 Q200.175 53.0538 203.899 49.2923 Q207.642 45.5119 208.601 44.4211 Q210.426 42.371 211.14 40.9604 Q211.874 39.531 211.874 38.1581 Q211.874 35.9199 210.294 34.5094 Q208.733 33.0988 206.213 33.0988 Q204.426 33.0988 202.432 33.7194 Q200.458 34.3401 198.201 35.6002 L198.201 31.7634 Q200.495 30.8418 202.489 30.3716 Q204.482 29.9015 206.138 29.9015 Q210.501 29.9015 213.096 32.0832 Q215.692 34.2649 215.692 37.9136 Q215.692 39.6439 215.034 41.2049 Q214.394 42.7472 212.683 44.8536 Q212.212 45.3991 209.692 48.0133 Q207.172 50.6088 202.583 55.2919 Z" fill="#000000" fill-rule="nonzero" fill-opacity="1" /><path clip-path="url(#clip230)" d="M16.4842 1218.86 L16.4842 1178.66 L21.895 1178.66 L21.895 1195.53 L64.0042 1195.53 L64.0042 1201.99 L21.895 1201.99 L21.895 1218.86 L16.4842 1218.86 Z" fill="#000000" fill-rule="nonzero" fill-opacity="1" /><path clip-path="url(#clip230)" d="M28.3562 1174.72 L28.3562 1168.86 L64.0042 1168.86 L64.0042 1174.72 L28.3562 1174.72 M14.479 1174.72 L14.479 1168.86 L21.895 1168.86 L21.895 1174.72 L14.479 1174.72 Z" fill="#000000" fill-rule="nonzero" fill-opacity="1" /><path clip-path="url(#clip230)" d="M35.1993 1128.85 Q31.2526 1126.66 29.3747 1123.6 Q27.4968 1120.54 27.4968 1116.41 Q27.4968 1110.84 31.4117 1107.81 Q35.2948 1104.79 42.4881 1104.79 L64.0042 1104.79 L64.0042 1110.68 L42.679 1110.68 Q37.5546 1110.68 35.072 1112.49 Q32.5894 1114.31 32.5894 1118.03 Q32.5894 1122.58 35.6131 1125.22 Q38.6368 1127.86 43.8567 1127.86 L64.0042 1127.86 L64.0042 1133.75 L42.679 1133.75 Q37.5228 1133.75 35.072 1135.57 Q32.5894 1137.38 32.5894 1141.17 Q32.5894 1145.66 35.6449 1148.3 Q38.6686 1150.94 43.8567 1150.94 L64.0042 1150.94 L64.0042 1156.83 L28.3562 1156.83 L28.3562 1150.94 L33.8944 1150.94 Q30.616 1148.94 29.0564 1146.13 Q27.4968 1143.33 27.4968 1139.48 Q27.4968 1135.6 29.4702 1132.89 Q31.4436 1130.16 35.1993 1128.85 Z" fill="#000000" fill-rule="nonzero" fill-opacity="1" /><path clip-path="url(#clip230)" d="M44.7161 1062.62 L47.5806 1062.62 L47.5806 1089.54 Q53.6281 1089.16 56.8109 1085.91 Q59.9619 1082.64 59.9619 1076.81 Q59.9619 1073.44 59.1344 1070.29 Q58.3069 1067.1 56.6518 1063.98 L62.1899 1063.98 Q63.5267 1067.14 64.227 1070.45 Q64.9272 1073.76 64.9272 1077.16 Q64.9272 1085.69 59.9619 1090.69 Q54.9967 1095.65 46.5303 1095.65 Q37.7774 1095.65 32.6531 1090.94 Q27.4968 1086.2 27.4968 1078.18 Q27.4968 1070.99 32.1438 1066.82 Q36.7589 1062.62 44.7161 1062.62 M42.9973 1068.47 Q38.1912 1068.54 35.3266 1071.18 Q32.4621 1073.79 32.4621 1078.12 Q32.4621 1083.02 35.2312 1085.98 Q38.0002 1088.91 43.0292 1089.35 L42.9973 1068.47 Z" fill="#000000" fill-rule="nonzero" fill-opacity="1" /><path clip-path="url(#clip230)" d="M18.2347 1026.49 L28.3562 1026.49 L28.3562 1014.43 L32.9077 1014.43 L32.9077 1026.49 L52.2594 1026.49 Q56.6199 1026.49 57.8613 1025.31 Q59.1026 1024.1 59.1026 1020.44 L59.1026 1014.43 L64.0042 1014.43 L64.0042 1020.44 Q64.0042 1027.22 61.4897 1029.8 Q58.9434 1032.38 52.2594 1032.38 L32.9077 1032.38 L32.9077 1036.68 L28.3562 1036.68 L28.3562 1032.38 L18.2347 1032.38 L18.2347 1026.49 Z" fill="#000000" fill-rule="nonzero" fill-opacity="1" /><path clip-path="url(#clip230)" d="M32.4621 992.912 Q32.4621 997.622 36.1542 1000.36 Q39.8145 1003.1 46.212 1003.1 Q52.6095 1003.1 56.3017 1000.39 Q59.9619 997.654 59.9619 992.912 Q59.9619 988.233 56.2698 985.496 Q52.5777 982.758 46.212 982.758 Q39.8781 982.758 36.186 985.496 Q32.4621 988.233 32.4621 992.912 M27.4968 992.912 Q27.4968 985.273 32.4621 980.912 Q37.4273 976.552 46.212 976.552 Q54.9649 976.552 59.9619 980.912 Q64.9272 985.273 64.9272 992.912 Q64.9272 1000.58 59.9619 1004.94 Q54.9649 1009.27 46.212 1009.27 Q37.4273 1009.27 32.4621 1004.94 Q27.4968 1000.58 27.4968 992.912 Z" fill="#000000" fill-rule="nonzero" fill-opacity="1" /><path clip-path="url(#clip230)" d="M29.7248 920.47 L35.1993 920.47 Q33.8307 922.953 33.1623 925.467 Q32.4621 927.95 32.4621 930.496 Q32.4621 936.193 36.0905 939.344 Q39.6872 942.495 46.212 942.495 Q52.7369 942.495 56.3653 939.344 Q59.9619 936.193 59.9619 930.496 Q59.9619 927.95 59.2935 925.467 Q58.5933 922.953 57.2247 920.47 L62.6355 920.47 Q63.7814 922.921 64.3543 925.563 Q64.9272 928.172 64.9272 931.133 Q64.9272 939.185 59.8664 943.928 Q54.8057 948.67 46.212 948.67 Q37.491 948.67 32.4939 943.896 Q27.4968 939.09 27.4968 930.751 Q27.4968 928.045 28.0697 925.467 Q28.6108 922.889 29.7248 920.47 Z" fill="#000000" fill-rule="nonzero" fill-opacity="1" /><path clip-path="url(#clip230)" d="M32.4621 896.471 Q32.4621 901.182 36.1542 903.919 Q39.8145 906.656 46.212 906.656 Q52.6095 906.656 56.3017 903.951 Q59.9619 901.214 59.9619 896.471 Q59.9619 891.792 56.2698 889.055 Q52.5777 886.318 46.212 886.318 Q39.8781 886.318 36.186 889.055 Q32.4621 891.792 32.4621 896.471 M27.4968 896.471 Q27.4968 888.832 32.4621 884.472 Q37.4273 880.111 46.212 880.111 Q54.9649 880.111 59.9619 884.472 Q64.9272 888.832 64.9272 896.471 Q64.9272 904.142 59.9619 908.502 Q54.9649 912.831 46.212 912.831 Q37.4273 912.831 32.4621 908.502 Q27.4968 904.142 27.4968 896.471 Z" fill="#000000" fill-rule="nonzero" fill-opacity="1" /><path clip-path="url(#clip230)" d="M35.1993 842.649 Q31.2526 840.453 29.3747 837.397 Q27.4968 834.342 27.4968 830.204 Q27.4968 824.634 31.4117 821.611 Q35.2948 818.587 42.4881 818.587 L64.0042 818.587 L64.0042 824.475 L42.679 824.475 Q37.5546 824.475 35.072 826.289 Q32.5894 828.104 32.5894 831.827 Q32.5894 836.379 35.6131 839.021 Q38.6368 841.662 43.8567 841.662 L64.0042 841.662 L64.0042 847.551 L42.679 847.551 Q37.5228 847.551 35.072 849.365 Q32.5894 851.179 32.5894 854.967 Q32.5894 859.455 35.6449 862.096 Q38.6686 864.738 43.8567 864.738 L64.0042 864.738 L64.0042 870.626 L28.3562 870.626 L28.3562 864.738 L33.8944 864.738 Q30.616 862.733 29.0564 859.932 Q27.4968 857.131 27.4968 853.28 Q27.4968 849.397 29.4702 846.691 Q31.4436 843.954 35.1993 842.649 Z" fill="#000000" fill-rule="nonzero" fill-opacity="1" /><path clip-path="url(#clip230)" d="M58.657 801.24 L77.5631 801.24 L77.5631 807.129 L28.3562 807.129 L28.3562 801.24 L33.7671 801.24 Q30.5842 799.394 29.0564 796.593 Q27.4968 793.761 27.4968 789.846 Q27.4968 783.353 32.6531 779.31 Q37.8093 775.236 46.212 775.236 Q54.6147 775.236 59.771 779.31 Q64.9272 783.353 64.9272 789.846 Q64.9272 793.761 63.3994 796.593 Q61.8398 799.394 58.657 801.24 M46.212 781.316 Q39.7508 781.316 36.0905 783.989 Q32.3984 786.631 32.3984 791.278 Q32.3984 795.925 36.0905 798.598 Q39.7508 801.24 46.212 801.24 Q52.6732 801.24 56.3653 798.598 Q60.0256 795.925 60.0256 791.278 Q60.0256 786.631 56.3653 783.989 Q52.6732 781.316 46.212 781.316 Z" fill="#000000" fill-rule="nonzero" fill-opacity="1" /><path clip-path="url(#clip230)" d="M49.9359 766.133 L28.3562 766.133 L28.3562 760.277 L49.7131 760.277 Q54.7739 760.277 57.3202 758.304 Q59.8346 756.33 59.8346 752.383 Q59.8346 747.641 56.8109 744.904 Q53.7872 742.135 48.5673 742.135 L28.3562 742.135 L28.3562 736.278 L64.0042 736.278 L64.0042 742.135 L58.5296 742.135 Q61.7762 744.267 63.3676 747.1 Q64.9272 749.901 64.9272 753.625 Q64.9272 759.768 61.1078 762.951 Q57.2883 766.133 49.9359 766.133 M27.4968 751.397 L27.4968 751.397 Z" fill="#000000" fill-rule="nonzero" fill-opacity="1" /><path clip-path="url(#clip230)" d="M18.2347 718.422 L28.3562 718.422 L28.3562 706.359 L32.9077 706.359 L32.9077 718.422 L52.2594 718.422 Q56.6199 718.422 57.8613 717.245 Q59.1026 716.035 59.1026 712.375 L59.1026 706.359 L64.0042 706.359 L64.0042 712.375 Q64.0042 719.154 61.4897 721.733 Q58.9434 724.311 52.2594 724.311 L32.9077 724.311 L32.9077 728.608 L28.3562 728.608 L28.3562 724.311 L18.2347 724.311 L18.2347 718.422 Z" fill="#000000" fill-rule="nonzero" fill-opacity="1" /><path clip-path="url(#clip230)" d="M44.7161 668.165 L47.5806 668.165 L47.5806 695.092 Q53.6281 694.71 56.8109 691.464 Q59.9619 688.185 59.9619 682.361 Q59.9619 678.987 59.1344 675.836 Q58.3069 672.653 56.6518 669.534 L62.1899 669.534 Q63.5267 672.685 64.227 675.995 Q64.9272 679.305 64.9272 682.711 Q64.9272 691.241 59.9619 696.238 Q54.9967 701.203 46.5303 701.203 Q37.7774 701.203 32.6531 696.493 Q27.4968 691.75 27.4968 683.729 Q27.4968 676.536 32.1438 672.367 Q36.7589 668.165 44.7161 668.165 M42.9973 674.022 Q38.1912 674.085 35.3266 676.727 Q32.4621 679.337 32.4621 683.666 Q32.4621 688.567 35.2312 691.527 Q38.0002 694.456 43.0292 694.901 L42.9973 674.022 Z" fill="#000000" fill-rule="nonzero" fill-opacity="1" /><path clip-path="url(#clip230)" d="M58.657 632.167 L77.5631 632.167 L77.5631 638.055 L28.3562 638.055 L28.3562 632.167 L33.7671 632.167 Q30.5842 630.321 29.0564 627.52 Q27.4968 624.687 27.4968 620.772 Q27.4968 614.279 32.6531 610.237 Q37.8093 606.163 46.212 606.163 Q54.6147 606.163 59.771 610.237 Q64.9272 614.279 64.9272 620.772 Q64.9272 624.687 63.3994 627.52 Q61.8398 630.321 58.657 632.167 M46.212 612.242 Q39.7508 612.242 36.0905 614.916 Q32.3984 617.558 32.3984 622.205 Q32.3984 626.852 36.0905 629.525 Q39.7508 632.167 46.212 632.167 Q52.6732 632.167 56.3653 629.525 Q60.0256 626.852 60.0256 622.205 Q60.0256 617.558 56.3653 614.916 Q52.6732 612.242 46.212 612.242 Z" fill="#000000" fill-rule="nonzero" fill-opacity="1" /><path clip-path="url(#clip230)" d="M32.4621 582.642 Q32.4621 587.353 36.1542 590.09 Q39.8145 592.827 46.212 592.827 Q52.6095 592.827 56.3017 590.122 Q59.9619 587.384 59.9619 582.642 Q59.9619 577.963 56.2698 575.226 Q52.5777 572.489 46.212 572.489 Q39.8781 572.489 36.186 575.226 Q32.4621 577.963 32.4621 582.642 M27.4968 582.642 Q27.4968 575.003 32.4621 570.643 Q37.4273 566.282 46.212 566.282 Q54.9649 566.282 59.9619 570.643 Q64.9272 575.003 64.9272 582.642 Q64.9272 590.313 59.9619 594.673 Q54.9649 599.002 46.212 599.002 Q37.4273 599.002 32.4621 594.673 Q27.4968 590.313 27.4968 582.642 Z" fill="#000000" fill-rule="nonzero" fill-opacity="1" /><path clip-path="url(#clip230)" d="M29.4065 533.849 L34.9447 533.849 Q33.6716 536.331 33.035 539.005 Q32.3984 541.679 32.3984 544.543 Q32.3984 548.904 33.7352 551.1 Q35.072 553.264 37.7456 553.264 Q39.7826 553.264 40.9603 551.705 Q42.1061 550.145 43.1565 545.434 L43.6021 543.429 Q44.9389 537.191 47.3897 534.581 Q49.8086 531.939 54.1691 531.939 Q59.1344 531.939 62.0308 535.886 Q64.9272 539.801 64.9272 546.676 Q64.9272 549.54 64.3543 552.659 Q63.8132 555.747 62.6992 559.184 L56.6518 559.184 Q58.3387 555.938 59.198 552.787 Q60.0256 549.636 60.0256 546.548 Q60.0256 542.411 58.6251 540.183 Q57.1929 537.955 54.6147 537.955 Q52.2276 537.955 50.9545 539.578 Q49.6813 541.169 48.5037 546.612 L48.0262 548.649 Q46.8804 554.092 44.5251 556.511 Q42.138 558.93 38.0002 558.93 Q32.9713 558.93 30.2341 555.365 Q27.4968 551.8 27.4968 545.243 Q27.4968 541.997 27.9743 539.132 Q28.4517 536.268 29.4065 533.849 Z" fill="#000000" fill-rule="nonzero" fill-opacity="1" /><path clip-path="url(#clip230)" d="M18.2347 516.82 L28.3562 516.82 L28.3562 504.757 L32.9077 504.757 L32.9077 516.82 L52.2594 516.82 Q56.6199 516.82 57.8613 515.643 Q59.1026 514.433 59.1026 510.773 L59.1026 504.757 L64.0042 504.757 L64.0042 510.773 Q64.0042 517.553 61.4897 520.131 Q58.9434 522.709 52.2594 522.709 L32.9077 522.709 L32.9077 527.006 L28.3562 527.006 L28.3562 522.709 L18.2347 522.709 L18.2347 516.82 Z" fill="#000000" fill-rule="nonzero" fill-opacity="1" /><path clip-path="url(#clip230)" d="M44.7161 466.563 L47.5806 466.563 L47.5806 493.49 Q53.6281 493.108 56.8109 489.862 Q59.9619 486.583 59.9619 480.759 Q59.9619 477.385 59.1344 474.234 Q58.3069 471.051 56.6518 467.932 L62.1899 467.932 Q63.5267 471.083 64.227 474.393 Q64.9272 477.703 64.9272 481.109 Q64.9272 489.639 59.9619 494.636 Q54.9967 499.601 46.5303 499.601 Q37.7774 499.601 32.6531 494.891 Q27.4968 490.148 27.4968 482.127 Q27.4968 474.934 32.1438 470.765 Q36.7589 466.563 44.7161 466.563 M42.9973 472.42 Q38.1912 472.483 35.3266 475.125 Q32.4621 477.735 32.4621 482.064 Q32.4621 486.965 35.2312 489.925 Q38.0002 492.854 43.0292 493.299 L42.9973 472.42 Z" fill="#000000" fill-rule="nonzero" fill-opacity="1" /><path clip-path="url(#clip230)" d="M33.8307 436.294 Q33.2578 437.281 33.0032 438.459 Q32.7167 439.604 32.7167 441.005 Q32.7167 445.97 35.9632 448.644 Q39.1779 451.286 45.2253 451.286 L64.0042 451.286 L64.0042 457.174 L28.3562 457.174 L28.3562 451.286 L33.8944 451.286 Q30.6479 449.439 29.0883 446.479 Q27.4968 443.519 27.4968 439.286 Q27.4968 438.681 27.5923 437.949 Q27.656 437.217 27.8151 436.326 L33.8307 436.294 Z" fill="#000000" fill-rule="nonzero" fill-opacity="1" /><path clip-path="url(#clip230)" d="M28.3562 430.151 L28.3562 424.295 L64.0042 424.295 L64.0042 430.151 L28.3562 430.151 M14.479 430.151 L14.479 424.295 L21.895 424.295 L21.895 430.151 L14.479 430.151 Z" fill="#000000" fill-rule="nonzero" fill-opacity="1" /><path clip-path="url(#clip230)" d="M32.4621 398.227 Q32.4621 402.938 36.1542 405.675 Q39.8145 408.413 46.212 408.413 Q52.6095 408.413 56.3017 405.707 Q59.9619 402.97 59.9619 398.227 Q59.9619 393.549 56.2698 390.811 Q52.5777 388.074 46.212 388.074 Q39.8781 388.074 36.186 390.811 Q32.4621 393.549 32.4621 398.227 M27.4968 398.227 Q27.4968 390.589 32.4621 386.228 Q37.4273 381.868 46.212 381.868 Q54.9649 381.868 59.9619 386.228 Q64.9272 390.589 64.9272 398.227 Q64.9272 405.898 59.9619 410.259 Q54.9649 414.587 46.212 414.587 Q37.4273 414.587 32.4621 410.259 Q27.4968 405.898 27.4968 398.227 Z" fill="#000000" fill-rule="nonzero" fill-opacity="1" /><path clip-path="url(#clip230)" d="M33.8307 351.503 Q33.2578 352.49 33.0032 353.667 Q32.7167 354.813 32.7167 356.214 Q32.7167 361.179 35.9632 363.853 Q39.1779 366.494 45.2253 366.494 L64.0042 366.494 L64.0042 372.383 L28.3562 372.383 L28.3562 366.494 L33.8944 366.494 Q30.6479 364.648 29.0883 361.688 Q27.4968 358.728 27.4968 354.495 Q27.4968 353.89 27.5923 353.158 Q27.656 352.426 27.8151 351.535 L33.8307 351.503 Z" fill="#000000" fill-rule="nonzero" fill-opacity="1" /><path clip-path="url(#clip230)" d="M14.5426 310.572 Q21.8632 314.837 29.0246 316.905 Q36.186 318.974 43.5384 318.974 Q50.8908 318.974 58.1159 316.905 Q65.3091 314.805 72.5979 310.572 L72.5979 315.664 Q65.1182 320.438 57.8931 322.826 Q50.668 325.181 43.5384 325.181 Q36.4406 325.181 29.2474 322.826 Q22.0542 320.47 14.5426 315.664 L14.5426 310.572 Z" fill="#000000" fill-rule="nonzero" fill-opacity="1" /><path clip-path="url(#clip230)" d="M29.4065 276.483 L34.9447 276.483 Q33.6716 278.966 33.035 281.639 Q32.3984 284.313 32.3984 287.178 Q32.3984 291.538 33.7352 293.734 Q35.072 295.899 37.7456 295.899 Q39.7826 295.899 40.9603 294.339 Q42.1061 292.779 43.1565 288.069 L43.6021 286.064 Q44.9389 279.825 47.3897 277.215 Q49.8086 274.574 54.1691 274.574 Q59.1344 274.574 62.0308 278.52 Q64.9272 282.435 64.9272 289.31 Q64.9272 292.175 64.3543 295.294 Q63.8132 298.381 62.6992 301.819 L56.6518 301.819 Q58.3387 298.572 59.198 295.421 Q60.0256 292.27 60.0256 289.183 Q60.0256 285.045 58.6251 282.817 Q57.1929 280.589 54.6147 280.589 Q52.2276 280.589 50.9545 282.212 Q49.6813 283.804 48.5037 289.246 L48.0262 291.284 Q46.8804 296.726 44.5251 299.145 Q42.138 301.564 38.0002 301.564 Q32.9713 301.564 30.2341 297.999 Q27.4968 294.435 27.4968 287.878 Q27.4968 284.631 27.9743 281.767 Q28.4517 278.902 29.4065 276.483 Z" fill="#000000" fill-rule="nonzero" fill-opacity="1" /><path clip-path="url(#clip230)" d="M14.5426 266.171 L14.5426 261.078 Q22.0542 256.304 29.2474 253.949 Q36.4406 251.561 43.5384 251.561 Q50.668 251.561 57.8931 253.949 Q65.1182 256.304 72.5979 261.078 L72.5979 266.171 Q65.3091 261.938 58.1159 259.869 Q50.8908 257.768 43.5384 257.768 Q36.186 257.768 29.0246 259.869 Q21.8632 261.938 14.5426 266.171 Z" fill="#000000" fill-rule="nonzero" fill-opacity="1" /><path clip-path="url(#clip232)" d="M519.933 1384.24 L415.618 1384.24 L624.249 1384.24 L519.933 1384.24 L519.933 1375 L519.933 1384.24  Z" fill="#4477aa" fill-rule="evenodd" fill-opacity="1"/>
<polyline clip-path="url(#clip232)" style="stroke:#000000; stroke-linecap:round; stroke-linejoin:round; stroke-width:4; stroke-opacity:1; fill:none" points="519.933,1384.24 415.618,1384.24 624.249,1384.24 519.933,1384.24 519.933,1375 519.933,1384.24 "/>
<path clip-path="url(#clip232)" d="M728.564 1375 L728.564 1353.61 L311.302 1353.61 L311.302 1375 L728.564 1375 L728.564 1353.61 L728.564 1375  Z" fill="#4477aa" fill-rule="evenodd" fill-opacity="1"/>
<polyline clip-path="url(#clip232)" style="stroke:#000000; stroke-linecap:round; stroke-linejoin:round; stroke-width:4; stroke-opacity:1; fill:none" points="728.564,1375 728.564,1353.61 311.302,1353.61 311.302,1375 728.564,1375 728.564,1353.61 728.564,1375 "/>
<path clip-path="url(#clip232)" d="M728.564 1333.24 L311.302 1333.24 L311.302 1353.61 L728.564 1353.61 L728.564 1333.24 L519.933 1333.24 L728.564 1333.24  Z" fill="#4477aa" fill-rule="evenodd" fill-opacity="1"/>
<polyline clip-path="url(#clip232)" style="stroke:#000000; stroke-linecap:round; stroke-linejoin:round; stroke-width:4; stroke-opacity:1; fill:none" points="728.564,1333.24 311.302,1333.24 311.302,1353.61 728.564,1353.61 728.564,1333.24 519.933,1333.24 728.564,1333.24 "/>
<path clip-path="url(#clip232)" d="M519.933 1320.64 L415.618 1320.64 L624.249 1320.64 L519.933 1320.64 L519.933 1333.24 L519.933 1320.64  Z" fill="#4477aa" fill-rule="evenodd" fill-opacity="1"/>
<polyline clip-path="url(#clip232)" style="stroke:#000000; stroke-linecap:round; stroke-linejoin:round; stroke-width:4; stroke-opacity:1; fill:none" points="519.933,1320.64 415.618,1320.64 624.249,1320.64 519.933,1320.64 519.933,1333.24 519.933,1320.64 "/>
<path clip-path="url(#clip232)" d="M1041.51 1242.82 L937.195 1242.82 L1145.83 1242.82 L1041.51 1242.82 L1041.51 1237.38 L1041.51 1242.82  Z" fill="#4477aa" fill-rule="evenodd" fill-opacity="1"/>
<polyline clip-path="url(#clip232)" style="stroke:#000000; stroke-linecap:round; stroke-linejoin:round; stroke-width:4; stroke-opacity:1; fill:none" points="1041.51,1242.82 937.195,1242.82 1145.83,1242.82 1041.51,1242.82 1041.51,1237.38 1041.51,1242.82 "/>
<path clip-path="url(#clip232)" d="M1250.14 1237.38 L1250.14 1225.79 L832.88 1225.79 L832.88 1237.38 L1250.14 1237.38 L1250.14 1225.79 L1250.14 1237.38  Z" fill="#4477aa" fill-rule="evenodd" fill-opacity="1"/>
<polyline clip-path="url(#clip232)" style="stroke:#000000; stroke-linecap:round; stroke-linejoin:round; stroke-width:4; stroke-opacity:1; fill:none" points="1250.14,1237.38 1250.14,1225.79 832.88,1225.79 832.88,1237.38 1250.14,1237.38 1250.14,1225.79 1250.14,1237.38 "/>
<path clip-path="url(#clip232)" d="M1250.14 1222.19 L832.88 1222.19 L832.88 1225.79 L1250.14 1225.79 L1250.14 1222.19 L1041.51 1222.19 L1250.14 1222.19  Z" fill="#4477aa" fill-rule="evenodd" fill-opacity="1"/>
<polyline clip-path="url(#clip232)" style="stroke:#000000; stroke-linecap:round; stroke-linejoin:round; stroke-width:4; stroke-opacity:1; fill:none" points="1250.14,1222.19 832.88,1222.19 832.88,1225.79 1250.14,1225.79 1250.14,1222.19 1041.51,1222.19 1250.14,1222.19 "/>
<path clip-path="url(#clip232)" d="M1041.51 1216.62 L937.195 1216.62 L1145.83 1216.62 L1041.51 1216.62 L1041.51 1222.19 L1041.51 1216.62  Z" fill="#4477aa" fill-rule="evenodd" fill-opacity="1"/>
<polyline clip-path="url(#clip232)" style="stroke:#000000; stroke-linecap:round; stroke-linejoin:round; stroke-width:4; stroke-opacity:1; fill:none" points="1041.51,1216.62 937.195,1216.62 1145.83,1216.62 1041.51,1216.62 1041.51,1222.19 1041.51,1216.62 "/>
<path clip-path="url(#clip232)" d="M1563.09 1050.7 L1458.77 1050.7 L1667.4 1050.7 L1563.09 1050.7 L1563.09 1049.16 L1563.09 1050.7  Z" fill="#4477aa" fill-rule="evenodd" fill-opacity="1"/>
<polyline clip-path="url(#clip232)" style="stroke:#000000; stroke-linecap:round; stroke-linejoin:round; stroke-width:4; stroke-opacity:1; fill:none" points="1563.09,1050.7 1458.77,1050.7 1667.4,1050.7 1563.09,1050.7 1563.09,1049.16 1563.09,1050.7 "/>
<path clip-path="url(#clip232)" d="M1771.72 1049.16 L1771.72 1048.28 L1354.46 1048.28 L1354.46 1049.16 L1771.72 1049.16 L1771.72 1048.28 L1771.72 1049.16  Z" fill="#4477aa" fill-rule="evenodd" fill-opacity="1"/>
<polyline clip-path="url(#clip232)" style="stroke:#000000; stroke-linecap:round; stroke-linejoin:round; stroke-width:4; stroke-opacity:1; fill:none" points="1771.72,1049.16 1771.72,1048.28 1354.46,1048.28 1354.46,1049.16 1771.72,1049.16 1771.72,1048.28 1771.72,1049.16 "/>
<path clip-path="url(#clip232)" d="M1771.72 1045.81 L1354.46 1045.81 L1354.46 1048.28 L1771.72 1048.28 L1771.72 1045.81 L1563.09 1045.81 L1771.72 1045.81  Z" fill="#4477aa" fill-rule="evenodd" fill-opacity="1"/>
<polyline clip-path="url(#clip232)" style="stroke:#000000; stroke-linecap:round; stroke-linejoin:round; stroke-width:4; stroke-opacity:1; fill:none" points="1771.72,1045.81 1354.46,1045.81 1354.46,1048.28 1771.72,1048.28 1771.72,1045.81 1563.09,1045.81 1771.72,1045.81 "/>
<path clip-path="url(#clip232)" d="M1563.09 1042.66 L1458.77 1042.66 L1667.4 1042.66 L1563.09 1042.66 L1563.09 1045.81 L1563.09 1042.66  Z" fill="#4477aa" fill-rule="evenodd" fill-opacity="1"/>
<polyline clip-path="url(#clip232)" style="stroke:#000000; stroke-linecap:round; stroke-linejoin:round; stroke-width:4; stroke-opacity:1; fill:none" points="1563.09,1042.66 1458.77,1042.66 1667.4,1042.66 1563.09,1042.66 1563.09,1045.81 1563.09,1042.66 "/>
<path clip-path="url(#clip232)" d="M2084.67 92.2295 L1980.35 92.2295 L2188.98 92.2295 L2084.67 92.2295 L2084.67 91.2787 L2084.67 92.2295  Z" fill="#4477aa" fill-rule="evenodd" fill-opacity="1"/>
<polyline clip-path="url(#clip232)" style="stroke:#000000; stroke-linecap:round; stroke-linejoin:round; stroke-width:4; stroke-opacity:1; fill:none" points="2084.67,92.2295 1980.35,92.2295 2188.98,92.2295 2084.67,92.2295 2084.67,91.2787 2084.67,92.2295 "/>
<path clip-path="url(#clip232)" d="M2293.3 91.2787 L2293.3 90.1296 L1876.03 90.1296 L1876.03 91.2787 L2293.3 91.2787 L2293.3 90.1296 L2293.3 91.2787  Z" fill="#4477aa" fill-rule="evenodd" fill-opacity="1"/>
<polyline clip-path="url(#clip232)" style="stroke:#000000; stroke-linecap:round; stroke-linejoin:round; stroke-width:4; stroke-opacity:1; fill:none" points="2293.3,91.2787 2293.3,90.1296 1876.03,90.1296 1876.03,91.2787 2293.3,91.2787 2293.3,90.1296 2293.3,91.2787 "/>
<path clip-path="url(#clip232)" d="M2293.3 87.8597 L1876.03 87.8597 L1876.03 90.1296 L2293.3 90.1296 L2293.3 87.8597 L2084.67 87.8597 L2293.3 87.8597  Z" fill="#4477aa" fill-rule="evenodd" fill-opacity="1"/>
<polyline clip-path="url(#clip232)" style="stroke:#000000; stroke-linecap:round; stroke-linejoin:round; stroke-width:4; stroke-opacity:1; fill:none" points="2293.3,87.8597 1876.03,87.8597 1876.03,90.1296 2293.3,90.1296 2293.3,87.8597 2084.67,87.8597 2293.3,87.8597 "/>
<path clip-path="url(#clip232)" d="M2084.67 86.1857 L1980.35 86.1857 L2188.98 86.1857 L2084.67 86.1857 L2084.67 87.8597 L2084.67 86.1857  Z" fill="#4477aa" fill-rule="evenodd" fill-opacity="1"/>
<polyline clip-path="url(#clip232)" style="stroke:#000000; stroke-linecap:round; stroke-linejoin:round; stroke-width:4; stroke-opacity:1; fill:none" points="2084.67,86.1857 1980.35,86.1857 2188.98,86.1857 2084.67,86.1857 2084.67,87.8597 2084.67,86.1857 "/>
<polyline clip-path="url(#clip232)" style="stroke:#4477aa; stroke-linecap:round; stroke-linejoin:round; stroke-width:0; stroke-opacity:1; fill:none" points="519.933,1384.24 415.618,1384.24 624.249,1384.24 519.933,1384.24 519.933,1375 "/>
<polyline clip-path="url(#clip232)" style="stroke:#4477aa; stroke-linecap:round; stroke-linejoin:round; stroke-width:0; stroke-opacity:1; fill:none" points="728.564,1375 728.564,1353.61 311.302,1353.61 311.302,1375 728.564,1375 728.564,1353.61 "/>
<polyline clip-path="url(#clip232)" style="stroke:#4477aa; stroke-linecap:round; stroke-linejoin:round; stroke-width:0; stroke-opacity:1; fill:none" points="728.564,1333.24 311.302,1333.24 311.302,1353.61 728.564,1353.61 728.564,1333.24 519.933,1333.24 "/>
<polyline clip-path="url(#clip232)" style="stroke:#4477aa; stroke-linecap:round; stroke-linejoin:round; stroke-width:0; stroke-opacity:1; fill:none" points="519.933,1320.64 415.618,1320.64 624.249,1320.64 519.933,1320.64 519.933,1333.24 "/>
<polyline clip-path="url(#clip232)" style="stroke:#4477aa; stroke-linecap:round; stroke-linejoin:round; stroke-width:0; stroke-opacity:1; fill:none" points="1041.51,1242.82 937.195,1242.82 1145.83,1242.82 1041.51,1242.82 1041.51,1237.38 "/>
<polyline clip-path="url(#clip232)" style="stroke:#4477aa; stroke-linecap:round; stroke-linejoin:round; stroke-width:0; stroke-opacity:1; fill:none" points="1250.14,1237.38 1250.14,1225.79 832.88,1225.79 832.88,1237.38 1250.14,1237.38 1250.14,1225.79 "/>
<polyline clip-path="url(#clip232)" style="stroke:#4477aa; stroke-linecap:round; stroke-linejoin:round; stroke-width:0; stroke-opacity:1; fill:none" points="1250.14,1222.19 832.88,1222.19 832.88,1225.79 1250.14,1225.79 1250.14,1222.19 1041.51,1222.19 "/>
<polyline clip-path="url(#clip232)" style="stroke:#4477aa; stroke-linecap:round; stroke-linejoin:round; stroke-width:0; stroke-opacity:1; fill:none" points="1041.51,1216.62 937.195,1216.62 1145.83,1216.62 1041.51,1216.62 1041.51,1222.19 "/>
<polyline clip-path="url(#clip232)" style="stroke:#4477aa; stroke-linecap:round; stroke-linejoin:round; stroke-width:0; stroke-opacity:1; fill:none" points="1563.09,1050.7 1458.77,1050.7 1667.4,1050.7 1563.09,1050.7 1563.09,1049.16 "/>
<polyline clip-path="url(#clip232)" style="stroke:#4477aa; stroke-linecap:round; stroke-linejoin:round; stroke-width:0; stroke-opacity:1; fill:none" points="1771.72,1049.16 1771.72,1048.28 1354.46,1048.28 1354.46,1049.16 1771.72,1049.16 1771.72,1048.28 "/>
<polyline clip-path="url(#clip232)" style="stroke:#4477aa; stroke-linecap:round; stroke-linejoin:round; stroke-width:0; stroke-opacity:1; fill:none" points="1771.72,1045.81 1354.46,1045.81 1354.46,1048.28 1771.72,1048.28 1771.72,1045.81 1563.09,1045.81 "/>
<polyline clip-path="url(#clip232)" style="stroke:#4477aa; stroke-linecap:round; stroke-linejoin:round; stroke-width:0; stroke-opacity:1; fill:none" points="1563.09,1042.66 1458.77,1042.66 1667.4,1042.66 1563.09,1042.66 1563.09,1045.81 "/>
<polyline clip-path="url(#clip232)" style="stroke:#4477aa; stroke-linecap:round; stroke-linejoin:round; stroke-width:0; stroke-opacity:1; fill:none" points="2084.67,92.2295 1980.35,92.2295 2188.98,92.2295 2084.67,92.2295 2084.67,91.2787 "/>
<polyline clip-path="url(#clip232)" style="stroke:#4477aa; stroke-linecap:round; stroke-linejoin:round; stroke-width:0; stroke-opacity:1; fill:none" points="2293.3,91.2787 2293.3,90.1296 1876.03,90.1296 1876.03,91.2787 2293.3,91.2787 2293.3,90.1296 "/>
<polyline clip-path="url(#clip232)" style="stroke:#4477aa; stroke-linecap:round; stroke-linejoin:round; stroke-width:0; stroke-opacity:1; fill:none" points="2293.3,87.8597 1876.03,87.8597 1876.03,90.1296 2293.3,90.1296 2293.3,87.8597 2084.67,87.8597 "/>
<polyline clip-path="url(#clip232)" style="stroke:#4477aa; stroke-linecap:round; stroke-linejoin:round; stroke-width:0; stroke-opacity:1; fill:none" points="2084.67,86.1857 1980.35,86.1857 2188.98,86.1857 2084.67,86.1857 2084.67,87.8597 "/>
</svg>
